<svg xmlns="http://www.w3.org/2000/svg" xmlns:xlink="http://www.w3.org/1999/xlink" id="terminal" baseProfile="full" viewBox="0 0 976 597" width="976" version="1.1">
    <defs>
        <termtosvg:template_settings xmlns:termtosvg="https://github.com/nbedos/termtosvg">
            <termtosvg:screen_geometry columns="122" rows="35"/>
            <termtosvg:animation type="css"/>
        </termtosvg:template_settings>
        <style type="text/css" id="generated-style"><![CDATA[#screen {
                font-family: 'DejaVu Sans Mono', monospace;
                font-style: normal;
                font-size: 14px;
            }

        text {
            dominant-baseline: text-before-edge;
            white-space: pre;
        }
    ]]></style>
        <style type="text/css" id="user-style">
            /* The colors defined below are the default 16 colors used for rendering text of the terminal. Adjust
               them as needed.
               PowerShell colors based on https://en.wikipedia.org/wiki/ANSI_escape_code#Colors */
            .foreground {fill: #cccccc;}
            .background {fill: #0c0c0c;}
            .color0 {fill: #0c0c0c;}
            .color1 {fill: #c50f1f;}
            .color2 {fill: #13a10e;}
            .color3 {fill: #c19c00;}
            .color4 {fill: #0037da;}
            .color5 {fill: #881798;}
            .color6 {fill: #3a96dd;}
            .color7 {fill: #cccccc;}
            .color8 {fill: #767676;}
            .color9 {fill: #e74856;}
            .color10 {fill: #16c60c;}
            .color11 {fill: #f9f1a5;}
            .color12 {fill: #3b78ff;}
            .color13 {fill: #b4009e;}
            .color14 {fill: #61d6d6;}
            .color15 {fill: #f2f2f2;}
        </style>
    </defs>
    <svg id="screen" width="976" height="595" viewBox="0 0 976 595" preserveAspectRatio="xMidYMin slice">
    <rect class="background" height="100%" width="100%" x="0" y="0"/><defs><g id="g1"><text x="0" textLength="16" font-weight="bold" class="color14">  </text><text x="16" textLength="472" class="foreground">    (pad "" np_thru_hole circle (at -2 -1.3) (size 0.5 0.5)</text><text x="488" textLength="8" class="background">|</text><text x="496" textLength="16" font-weight="bold" class="color14">  </text><text x="512" textLength="464" class="foreground">    (pad "" np_thru_hole circle (at -2 -1.3) (size 0.5 0.5</text></g><g id="g2"><text x="0" textLength="16" font-weight="bold" class="color14">  </text><text x="16" textLength="472" class="foreground">    (pad 5 smd rect (at 1.3 -2.3) (size 0.4 1.6) (layers F.</text><text x="488" textLength="8" class="background">|</text><text x="496" textLength="16" font-weight="bold" class="color14">  </text><text x="512" textLength="464" class="foreground">    (pad 5 smd rect (at 1.3 -2.3) (size 0.4 1.6) (layers F</text></g><g id="g3"><text x="0" textLength="488" font-weight="bold" class="color14">+ +-- 25 lines: (net 3 GND))---------------------------------</text><text x="488" textLength="8" class="background">|</text><text x="496" textLength="480" font-weight="bold" class="color14">+ +-- 25 lines: (net 3 GND))--------------------------------</text></g><g id="g4"><text x="0" textLength="16" font-weight="bold" class="color14">  </text><text x="16" textLength="472" class="foreground">    (fp_text reference FB1 (at -2.8875 -0.05 90) (layer F.S</text><text x="488" textLength="8" class="background">|</text><text x="496" textLength="16" font-weight="bold" class="color14">  </text><text x="512" textLength="464" class="foreground">    (fp_text reference FB1 (at -2.8875 -0.05 90) (layer F.</text></g><g id="g5"><text x="0" textLength="16" font-weight="bold" class="color14">  </text><text x="16" textLength="472" class="foreground">      (effects (font (size 0.8 0.8) (thickness 0.12)))     </text><text x="488" textLength="8" class="background">|</text><text x="496" textLength="16" font-weight="bold" class="color14">  </text><text x="512" textLength="432" class="foreground">      (effects (font (size 0.8 0.8) (thickness 0.12)))</text></g><g id="g6"><text x="0" textLength="16" font-weight="bold" class="color14">  </text><text x="16" textLength="472" class="foreground">    )                                                      </text><text x="488" textLength="8" class="background">|</text><text x="496" textLength="16" font-weight="bold" class="color14">  </text><text x="512" textLength="40" class="foreground">    )</text></g><g id="g7"><text x="0" textLength="16" font-weight="bold" class="color14">  </text><text x="16" textLength="472" class="foreground">    (fp_text value 600R@2A (at 0 1.55 90) (layer F.Fab)    </text><text x="488" textLength="8" class="background">|</text><text x="496" textLength="16" font-weight="bold" class="color14">  </text><text x="512" textLength="440" class="foreground">    (fp_text value 600R@2A (at 0 1.55 90) (layer F.Fab)</text></g><g id="g8"><text x="0" textLength="16" font-weight="bold" class="color14">  </text><text x="16" textLength="400" class="foreground">      (effects (font (size 1 1) (thickness 0.15)))</text><text x="488" textLength="8" class="background">|</text><text x="496" textLength="16" font-weight="bold" class="color14">  </text><text x="512" textLength="400" class="foreground">      (effects (font (size 1 1) (thickness 0.15)))</text></g><g id="g9"><text x="0" textLength="16" font-weight="bold" class="color14">  </text><text x="16" textLength="40" class="foreground">    )</text><text x="488" textLength="8" class="background">|</text><text x="496" textLength="16" font-weight="bold" class="color14">  </text><text x="512" textLength="40" class="foreground">    )</text></g><g id="g10"><text x="0" textLength="16" font-weight="bold" class="color14">  </text><text x="16" textLength="472" class="foreground">    (fp_line (start 1.75 0.85) (end -1.75 0.85) (layer F.Cr</text><text x="488" textLength="8" class="background">|</text><text x="496" textLength="16" font-weight="bold" class="color14">  </text><text x="512" textLength="464" font-weight="bold" class="color12">----------------------------------------------------------</text></g><g id="g11"><text x="0" textLength="16" font-weight="bold" class="color14">  </text><text x="16" textLength="472" class="foreground">    (fp_line (start 1.75 -0.85) (end 1.75 0.85) (layer F.Cr</text><text x="488" textLength="8" class="background">|</text><text x="496" textLength="16" font-weight="bold" class="color14">  </text><text x="512" textLength="464" font-weight="bold" class="color12">----------------------------------------------------------</text></g><g id="g12"><text x="0" textLength="16" font-weight="bold" class="color14">  </text><text x="16" textLength="472" class="foreground">    (fp_line (start -1.75 -0.85) (end 1.75 -0.85) (layer F.</text><text x="488" textLength="8" class="background">|</text><text x="496" textLength="16" font-weight="bold" class="color14">  </text><text x="512" textLength="464" font-weight="bold" class="color12">----------------------------------------------------------</text></g><g id="g13"><text x="0" textLength="16" font-weight="bold" class="color14">  </text><text x="16" textLength="472" class="foreground">    (fp_line (start -1.75 0.85) (end -1.75 -0.85) (layer F.</text><text x="488" textLength="8" class="background">|</text><text x="496" textLength="16" font-weight="bold" class="color14">  </text><text x="512" textLength="464" font-weight="bold" class="color12">----------------------------------------------------------</text></g><g id="g14"><text x="0" textLength="16" font-weight="bold" class="color14">  </text><text x="16" textLength="472" class="foreground">    (fp_line (start -0.399622 0.56) (end 0.399622 0.56) (la</text><text x="488" textLength="8" class="background">|</text><text x="496" textLength="16" font-weight="bold" class="color14">  </text><text x="512" textLength="464" font-weight="bold" class="color12">----------------------------------------------------------</text></g><g id="g15"><text x="0" textLength="16" font-weight="bold" class="color14">  </text><text x="16" textLength="472" class="foreground">    (fp_line (start -0.399622 -0.56) (end 0.399622 -0.56) (</text><text x="488" textLength="8" class="background">|</text><text x="496" textLength="16" font-weight="bold" class="color14">  </text><text x="512" textLength="464" font-weight="bold" class="color12">----------------------------------------------------------</text></g><g id="g16"><text x="0" textLength="16" font-weight="bold" class="color14">  </text><text x="16" textLength="472" class="foreground">    (fp_line (start 1 0.45) (end -1 0.45) (layer F.Fab) (wi</text><text x="488" textLength="8" class="background">|</text><text x="496" textLength="16" font-weight="bold" class="color14">  </text><text x="512" textLength="464" font-weight="bold" class="color12">----------------------------------------------------------</text></g><g id="g17"><text x="0" textLength="16" font-weight="bold" class="color14">  </text><text x="16" textLength="472" class="foreground">    (fp_line (start 1 -0.45) (end 1 0.45) (layer F.Fab) (wi</text><text x="488" textLength="8" class="background">|</text><text x="496" textLength="16" font-weight="bold" class="color14">  </text><text x="512" textLength="464" font-weight="bold" class="color12">----------------------------------------------------------</text></g><g id="g18"><text x="0" textLength="16" font-weight="bold" class="color14">  </text><text x="16" textLength="472" class="foreground">    (fp_line (start -1 -0.45) (end 1 -0.45) (layer F.Fab) (</text><text x="488" textLength="8" class="background">|</text><text x="496" textLength="16" font-weight="bold" class="color14">  </text><text x="512" textLength="464" font-weight="bold" class="color12">----------------------------------------------------------</text></g><g id="g19"><text x="0" textLength="16" font-weight="bold" class="color14">  </text><text x="16" textLength="472" class="foreground">    (fp_line (start -1 0.45) (end -1 -0.45) (layer F.Fab) (</text><text x="488" textLength="8" class="background">|</text><text x="496" textLength="16" font-weight="bold" class="color14">  </text><text x="512" textLength="456" class="foreground">    (fp_line (start -1 0.45) (end -1 -0.45) (layer F.Fab)</text></g><g id="g20"><text x="0" textLength="16" font-weight="bold" class="color14">  </text><text x="16" textLength="472" font-weight="bold" class="color12">-----------------------------------------------------------</text><text x="488" textLength="8" class="background">|</text><text x="496" textLength="16" font-weight="bold" class="color14">  </text><text x="512" textLength="464" class="foreground">    (fp_line (start -1 -0.45) (end 1 -0.45) (layer F.Fab) </text></g><g id="g21"><text x="0" textLength="16" font-weight="bold" class="color14">  </text><text x="16" textLength="472" font-weight="bold" class="color12">-----------------------------------------------------------</text><text x="488" textLength="8" class="background">|</text><text x="496" textLength="16" font-weight="bold" class="color14">  </text><text x="512" textLength="464" class="foreground">    (fp_line (start 1 -0.45) (end 1 0.45) (layer F.Fab) (w</text></g><g id="g22"><text x="0" textLength="16" font-weight="bold" class="color14">  </text><text x="16" textLength="472" font-weight="bold" class="color12">-----------------------------------------------------------</text><text x="488" textLength="8" class="background">|</text><text x="496" textLength="16" font-weight="bold" class="color14">  </text><text x="512" textLength="464" class="foreground">    (fp_line (start 1 0.45) (end -1 0.45) (layer F.Fab) (w</text></g><g id="g23"><text x="0" textLength="16" font-weight="bold" class="color14">  </text><text x="16" textLength="472" font-weight="bold" class="color12">-----------------------------------------------------------</text><text x="488" textLength="8" class="background">|</text><text x="496" textLength="16" font-weight="bold" class="color14">  </text><text x="512" textLength="464" class="foreground">    (fp_line (start -0.399622 -0.56) (end 0.399622 -0.56) </text></g><g id="g24"><text x="0" textLength="16" font-weight="bold" class="color14">  </text><text x="16" textLength="472" font-weight="bold" class="color12">-----------------------------------------------------------</text><text x="488" textLength="8" class="background">|</text><text x="496" textLength="16" font-weight="bold" class="color14">  </text><text x="512" textLength="464" class="foreground">    (fp_line (start -0.399622 0.56) (end 0.399622 0.56) (l</text></g><g id="g25"><text x="0" textLength="16" font-weight="bold" class="color14">  </text><text x="16" textLength="472" font-weight="bold" class="color12">-----------------------------------------------------------</text><text x="488" textLength="8" class="background">|</text><text x="496" textLength="16" font-weight="bold" class="color14">  </text><text x="512" textLength="464" class="foreground">    (fp_line (start -1.75 0.85) (end -1.75 -0.85) (layer F</text></g><g id="g26"><text x="0" textLength="16" font-weight="bold" class="color14">  </text><text x="16" textLength="472" font-weight="bold" class="color12">-----------------------------------------------------------</text><text x="488" textLength="8" class="background">|</text><text x="496" textLength="16" font-weight="bold" class="color14">  </text><text x="512" textLength="464" class="foreground">    (fp_line (start -1.75 -0.85) (end 1.75 -0.85) (layer F</text></g><g id="g27"><text x="0" textLength="16" font-weight="bold" class="color14">  </text><text x="16" textLength="472" font-weight="bold" class="color12">-----------------------------------------------------------</text><text x="488" textLength="8" class="background">|</text><text x="496" textLength="16" font-weight="bold" class="color14">  </text><text x="512" textLength="464" class="foreground">    (fp_line (start 1.75 -0.85) (end 1.75 0.85) (layer F.C</text></g><g id="g28"><text x="0" textLength="16" font-weight="bold" class="color14">  </text><text x="16" textLength="472" font-weight="bold" class="color12">-----------------------------------------------------------</text><text x="488" textLength="8" class="background">|</text><text x="496" textLength="16" font-weight="bold" class="color14">  </text><text x="512" textLength="464" class="foreground">    (fp_line (start 1.75 0.85) (end -1.75 0.85) (layer F.C</text></g><g id="g29"><text x="0" textLength="16" font-weight="bold" class="color14">  </text><text x="16" textLength="368" class="foreground">    (fp_text user %R (at 0 0 90) (layer F.Fab)</text><text x="488" textLength="8" class="background">|</text><text x="496" textLength="16" font-weight="bold" class="color14">  </text><text x="512" textLength="368" class="foreground">    (fp_text user %R (at 0 0 90) (layer F.Fab)</text></g><g id="g30"><text x="0" textLength="16" font-weight="bold" class="color14">  </text><text x="16" textLength="472" class="foreground">      (effects (font (size 0.5 0.5) (thickness 0.08)))     </text><text x="488" textLength="8" class="background">|</text><text x="496" textLength="16" font-weight="bold" class="color14">  </text><text x="512" textLength="432" class="foreground">      (effects (font (size 0.5 0.5) (thickness 0.08)))</text></g><g id="g31"><text x="0" textLength="16" font-weight="bold" class="color14">  </text><text x="16" textLength="472" class="foreground">    (pad 2 smd roundrect (at 1.0625 0 270) (size 0.875 1.2)</text><text x="488" textLength="8" class="background">|</text><text x="496" textLength="16" font-weight="bold" class="color14">  </text><text x="512" textLength="464" class="foreground">    (pad 2 smd roundrect (at 1.0625 0 270) (size 0.875 1.2</text></g><g id="g32"><text x="0" textLength="16" font-weight="bold" class="color14">  </text><text x="16" textLength="240" class="foreground">      (net 9 "Net-(C4-Pad1)"))</text><text x="488" textLength="8" class="background">|</text><text x="496" textLength="16" font-weight="bold" class="color14">  </text><text x="512" textLength="240" class="foreground">      (net 9 "Net-(C4-Pad1)"))</text></g><g id="g33"><text x="0" textLength="496" font-weight="bold" class="background">a.kicad_pcb                                495,1           9% </text><text x="496" textLength="480" class="background">b.kicad_pcb                               495,1           9%</text></g><g id="g34"><text x="0" textLength="976" class="foreground">                                                                                                                          </text></g></defs><g><rect x="0" y="0" width="16" height="17" fill="#6c6c6c"/><rect x="488" y="0" width="8" height="17" class="foreground"/><rect x="496" y="0" width="16" height="17" fill="#6c6c6c"/><use xlink:href="#g1" y="0"/><rect x="0" y="17" width="16" height="17" fill="#6c6c6c"/><rect x="488" y="17" width="8" height="17" class="foreground"/><rect x="496" y="17" width="16" height="17" fill="#6c6c6c"/><use xlink:href="#g2" y="17"/><rect x="0" y="34" width="488" height="17" fill="#6c6c6c"/><rect x="488" y="34" width="8" height="17" class="foreground"/><rect x="496" y="34" width="480" height="17" fill="#6c6c6c"/><use xlink:href="#g3" y="34"/><rect x="0" y="51" width="16" height="17" fill="#6c6c6c"/><rect x="488" y="51" width="8" height="17" class="foreground"/><rect x="496" y="51" width="16" height="17" fill="#6c6c6c"/><use xlink:href="#g4" y="51"/><rect x="0" y="68" width="16" height="17" fill="#6c6c6c"/><rect x="488" y="68" width="8" height="17" class="foreground"/><rect x="496" y="68" width="16" height="17" fill="#6c6c6c"/><use xlink:href="#g5" y="68"/><rect x="0" y="85" width="16" height="17" fill="#6c6c6c"/><rect x="488" y="85" width="8" height="17" class="foreground"/><rect x="496" y="85" width="16" height="17" fill="#6c6c6c"/><use xlink:href="#g6" y="85"/><rect x="0" y="102" width="16" height="17" fill="#6c6c6c"/><rect x="488" y="102" width="8" height="17" class="foreground"/><rect x="496" y="102" width="16" height="17" fill="#6c6c6c"/><use xlink:href="#g7" y="102"/><rect x="0" y="119" width="16" height="17" fill="#6c6c6c"/><rect x="488" y="119" width="8" height="17" class="foreground"/><rect x="496" y="119" width="16" height="17" fill="#6c6c6c"/><use xlink:href="#g8" y="119"/><rect x="0" y="136" width="16" height="17" fill="#6c6c6c"/><rect x="488" y="136" width="8" height="17" class="foreground"/><rect x="496" y="136" width="16" height="17" fill="#6c6c6c"/><use xlink:href="#g9" y="136"/><rect x="0" y="153" width="16" height="17" fill="#6c6c6c"/><rect x="16" y="153" width="472" height="17" class="color4"/><rect x="488" y="153" width="8" height="17" class="foreground"/><rect x="496" y="153" width="16" height="17" fill="#6c6c6c"/><rect x="512" y="153" width="464" height="17" class="color6"/><use xlink:href="#g10" y="153"/><rect x="0" y="170" width="16" height="17" fill="#6c6c6c"/><rect x="16" y="170" width="472" height="17" class="color4"/><rect x="488" y="170" width="8" height="17" class="foreground"/><rect x="496" y="170" width="16" height="17" fill="#6c6c6c"/><rect x="512" y="170" width="464" height="17" class="color6"/><use xlink:href="#g11" y="170"/><rect x="0" y="187" width="16" height="17" fill="#6c6c6c"/><rect x="16" y="187" width="472" height="17" class="color4"/><rect x="488" y="187" width="8" height="17" class="foreground"/><rect x="496" y="187" width="16" height="17" fill="#6c6c6c"/><rect x="512" y="187" width="464" height="17" class="color6"/><use xlink:href="#g12" y="187"/><rect x="0" y="204" width="16" height="17" fill="#6c6c6c"/><rect x="16" y="204" width="472" height="17" class="color4"/><rect x="488" y="204" width="8" height="17" class="foreground"/><rect x="496" y="204" width="16" height="17" fill="#6c6c6c"/><rect x="512" y="204" width="464" height="17" class="color6"/><use xlink:href="#g13" y="204"/><rect x="0" y="221" width="16" height="17" fill="#6c6c6c"/><rect x="16" y="221" width="472" height="17" class="color4"/><rect x="488" y="221" width="8" height="17" class="foreground"/><rect x="496" y="221" width="16" height="17" fill="#6c6c6c"/><rect x="512" y="221" width="464" height="17" class="color6"/><use xlink:href="#g14" y="221"/><rect x="0" y="238" width="16" height="17" fill="#6c6c6c"/><rect x="16" y="238" width="472" height="17" class="color4"/><rect x="488" y="238" width="8" height="17" class="foreground"/><rect x="496" y="238" width="16" height="17" fill="#6c6c6c"/><rect x="512" y="238" width="464" height="17" class="color6"/><use xlink:href="#g15" y="238"/><rect x="0" y="255" width="16" height="17" fill="#6c6c6c"/><rect x="16" y="255" width="472" height="17" class="color4"/><rect x="488" y="255" width="8" height="17" class="foreground"/><rect x="496" y="255" width="16" height="17" fill="#6c6c6c"/><rect x="512" y="255" width="464" height="17" class="color6"/><use xlink:href="#g16" y="255"/><rect x="0" y="272" width="16" height="17" fill="#6c6c6c"/><rect x="16" y="272" width="472" height="17" class="color4"/><rect x="488" y="272" width="8" height="17" class="foreground"/><rect x="496" y="272" width="16" height="17" fill="#6c6c6c"/><rect x="512" y="272" width="464" height="17" class="color6"/><use xlink:href="#g17" y="272"/><rect x="0" y="289" width="16" height="17" fill="#6c6c6c"/><rect x="16" y="289" width="472" height="17" class="color4"/><rect x="488" y="289" width="8" height="17" class="foreground"/><rect x="496" y="289" width="16" height="17" fill="#6c6c6c"/><rect x="512" y="289" width="464" height="17" class="color6"/><use xlink:href="#g18" y="289"/><rect x="0" y="306" width="16" height="17" fill="#6c6c6c"/><rect x="488" y="306" width="8" height="17" class="foreground"/><rect x="496" y="306" width="16" height="17" fill="#6c6c6c"/><use xlink:href="#g19" y="306"/><rect x="0" y="323" width="16" height="17" fill="#6c6c6c"/><rect x="16" y="323" width="472" height="17" class="color6"/><rect x="488" y="323" width="8" height="17" class="foreground"/><rect x="496" y="323" width="16" height="17" fill="#6c6c6c"/><rect x="512" y="323" width="464" height="17" class="color4"/><use xlink:href="#g20" y="323"/><rect x="0" y="340" width="16" height="17" fill="#6c6c6c"/><rect x="16" y="340" width="472" height="17" class="color6"/><rect x="488" y="340" width="8" height="17" class="foreground"/><rect x="496" y="340" width="16" height="17" fill="#6c6c6c"/><rect x="512" y="340" width="464" height="17" class="color4"/><use xlink:href="#g21" y="340"/><rect x="0" y="357" width="16" height="17" fill="#6c6c6c"/><rect x="16" y="357" width="472" height="17" class="color6"/><rect x="488" y="357" width="8" height="17" class="foreground"/><rect x="496" y="357" width="16" height="17" fill="#6c6c6c"/><rect x="512" y="357" width="464" height="17" class="color4"/><use xlink:href="#g22" y="357"/><rect x="0" y="374" width="16" height="17" fill="#6c6c6c"/><rect x="16" y="374" width="472" height="17" class="color6"/><rect x="488" y="374" width="8" height="17" class="foreground"/><rect x="496" y="374" width="16" height="17" fill="#6c6c6c"/><rect x="512" y="374" width="464" height="17" class="color4"/><use xlink:href="#g23" y="374"/><rect x="0" y="391" width="16" height="17" fill="#6c6c6c"/><rect x="16" y="391" width="472" height="17" class="color6"/><rect x="488" y="391" width="8" height="17" class="foreground"/><rect x="496" y="391" width="16" height="17" fill="#6c6c6c"/><rect x="512" y="391" width="464" height="17" class="color4"/><use xlink:href="#g24" y="391"/><rect x="0" y="408" width="16" height="17" fill="#6c6c6c"/><rect x="16" y="408" width="472" height="17" class="color6"/><rect x="488" y="408" width="8" height="17" class="foreground"/><rect x="496" y="408" width="16" height="17" fill="#6c6c6c"/><rect x="512" y="408" width="464" height="17" class="color4"/><use xlink:href="#g25" y="408"/><rect x="0" y="425" width="16" height="17" fill="#6c6c6c"/><rect x="16" y="425" width="472" height="17" class="color6"/><rect x="488" y="425" width="8" height="17" class="foreground"/><rect x="496" y="425" width="16" height="17" fill="#6c6c6c"/><rect x="512" y="425" width="464" height="17" class="color4"/><use xlink:href="#g26" y="425"/><rect x="0" y="442" width="16" height="17" fill="#6c6c6c"/><rect x="16" y="442" width="472" height="17" class="color6"/><rect x="488" y="442" width="8" height="17" class="foreground"/><rect x="496" y="442" width="16" height="17" fill="#6c6c6c"/><rect x="512" y="442" width="464" height="17" class="color4"/><use xlink:href="#g27" y="442"/><rect x="0" y="459" width="16" height="17" fill="#6c6c6c"/><rect x="16" y="459" width="472" height="17" class="color6"/><rect x="488" y="459" width="8" height="17" class="foreground"/><rect x="496" y="459" width="16" height="17" fill="#6c6c6c"/><rect x="512" y="459" width="464" height="17" class="color4"/><use xlink:href="#g28" y="459"/><rect x="0" y="476" width="16" height="17" fill="#6c6c6c"/><rect x="488" y="476" width="8" height="17" class="foreground"/><rect x="496" y="476" width="16" height="17" fill="#6c6c6c"/><use xlink:href="#g29" y="476"/><rect x="0" y="493" width="16" height="17" fill="#6c6c6c"/><rect x="488" y="493" width="8" height="17" class="foreground"/><rect x="496" y="493" width="16" height="17" fill="#6c6c6c"/><use xlink:href="#g30" y="493"/><rect x="0" y="510" width="16" height="17" fill="#6c6c6c"/><rect x="488" y="510" width="8" height="17" class="foreground"/><rect x="496" y="510" width="16" height="17" fill="#6c6c6c"/><use xlink:href="#g9" y="510"/><rect x="0" y="527" width="16" height="17" fill="#6c6c6c"/><rect x="488" y="527" width="8" height="17" class="foreground"/><rect x="496" y="527" width="16" height="17" fill="#6c6c6c"/><use xlink:href="#g31" y="527"/><rect x="0" y="544" width="16" height="17" fill="#6c6c6c"/><rect x="488" y="544" width="8" height="17" class="foreground"/><rect x="496" y="544" width="16" height="17" fill="#6c6c6c"/><use xlink:href="#g32" y="544"/><rect x="0" y="561" width="976" height="17" class="foreground"/><use xlink:href="#g33" y="561"/><use xlink:href="#g34" y="578"/></g></svg>
</svg>